G04 MADE WITH FRITZING*
G04 WWW.FRITZING.ORG*
G04 DOUBLE SIDED*
G04 HOLES PLATED*
G04 CONTOUR ON CENTER OF CONTOUR VECTOR*
%ASAXBY*%
%FSLAX23Y23*%
%MOIN*%
%OFA0B0*%
%SFA1.0B1.0*%
%ADD10C,0.039370*%
%ADD11C,0.078000*%
%ADD12C,0.080000*%
%ADD13C,0.075000*%
%ADD14C,0.072917*%
%ADD15C,0.070000*%
%ADD16C,0.074472*%
%ADD17C,0.138425*%
%ADD18R,0.080000X0.080000*%
%ADD19R,0.074108X0.074472*%
%ADD20C,0.024000*%
%LNCOPPER1*%
G90*
G70*
G54D10*
X1044Y1763D03*
X684Y1163D03*
X1608Y602D03*
G54D11*
X608Y902D03*
X508Y902D03*
X408Y902D03*
X308Y902D03*
X508Y1502D03*
X508Y1402D03*
X508Y1302D03*
X808Y1502D03*
X908Y1502D03*
X1008Y1502D03*
X1108Y1502D03*
G54D12*
X308Y1902D03*
X308Y1764D03*
G54D11*
X1408Y1502D03*
X1408Y1402D03*
X3208Y602D03*
X3208Y702D03*
X3208Y802D03*
G54D13*
X1708Y1102D03*
X1308Y1102D03*
G54D14*
X3008Y102D03*
X1408Y102D03*
X3108Y102D03*
X3208Y102D03*
X3308Y102D03*
X3408Y102D03*
X3708Y1502D03*
X3508Y102D03*
X3608Y102D03*
X1448Y2002D03*
X2008Y102D03*
X2108Y102D03*
X2208Y102D03*
X2308Y102D03*
X3708Y702D03*
X2408Y102D03*
X2508Y102D03*
X2608Y102D03*
X2708Y102D03*
X2208Y2002D03*
X3708Y1902D03*
X3708Y1102D03*
X3708Y302D03*
X1048Y2002D03*
X1808Y102D03*
X1808Y2002D03*
X3708Y1702D03*
X3708Y1302D03*
X3708Y902D03*
X3408Y2002D03*
X3708Y502D03*
X3308Y2002D03*
X3208Y2002D03*
X3108Y2002D03*
X3008Y2002D03*
X2908Y2002D03*
X2808Y2002D03*
X2708Y2002D03*
X848Y2002D03*
X1248Y2002D03*
X1648Y2002D03*
X1208Y102D03*
X1608Y102D03*
X2408Y2002D03*
X2008Y2002D03*
X3708Y2002D03*
X3708Y1802D03*
X3708Y1602D03*
X3708Y1402D03*
X3708Y1202D03*
X3708Y1002D03*
X3708Y802D03*
X3708Y602D03*
X3708Y402D03*
X748Y2002D03*
X948Y2002D03*
X1148Y2002D03*
X1348Y2002D03*
X1548Y2002D03*
X1108Y102D03*
X1308Y102D03*
X1508Y102D03*
X1708Y102D03*
X2508Y2002D03*
X2308Y2002D03*
X2108Y2002D03*
X1908Y2002D03*
X3808Y2002D03*
X3808Y1902D03*
X3808Y1802D03*
X3808Y1702D03*
X3808Y1602D03*
X3808Y1502D03*
X3808Y1402D03*
X3808Y1302D03*
X3808Y1202D03*
X3808Y1102D03*
X3808Y1002D03*
X3808Y902D03*
X3808Y802D03*
X3808Y702D03*
X3808Y602D03*
X3808Y502D03*
X3808Y402D03*
X3808Y302D03*
X2908Y102D03*
G54D15*
X2308Y1202D03*
X2408Y1202D03*
X2508Y1202D03*
X2608Y1202D03*
X2708Y1202D03*
X2808Y1202D03*
X2908Y1202D03*
X308Y202D03*
X408Y202D03*
X508Y202D03*
X608Y202D03*
X708Y202D03*
G54D16*
X1308Y704D03*
X1208Y704D03*
X1308Y603D03*
X1208Y603D03*
X1308Y503D03*
X1208Y503D03*
X1308Y402D03*
X1208Y402D03*
X1308Y704D03*
X1208Y704D03*
X1308Y603D03*
X1208Y603D03*
X1308Y503D03*
X1208Y503D03*
X1308Y402D03*
X1208Y402D03*
G54D17*
X2858Y902D03*
G54D15*
X2208Y402D03*
X2308Y402D03*
X2408Y402D03*
X2508Y402D03*
X2608Y402D03*
X2708Y402D03*
X2808Y402D03*
X2908Y402D03*
G54D17*
X2258Y902D03*
G54D18*
X308Y1902D03*
G54D19*
X1308Y704D03*
X1308Y704D03*
X1308Y402D03*
G54D20*
X608Y1202D02*
X408Y1202D01*
D02*
X408Y1202D02*
X310Y1100D01*
D02*
X1608Y1500D02*
X1710Y1402D01*
D02*
X2808Y1100D02*
X2710Y1002D01*
D02*
X2608Y1002D02*
X2506Y904D01*
D02*
X2710Y1002D02*
X2608Y1002D01*
D02*
X808Y1300D02*
X608Y1202D01*
D02*
X310Y1100D02*
X308Y932D01*
D02*
X808Y1472D02*
X808Y1300D01*
D02*
X1710Y1402D02*
X1708Y1131D01*
D02*
X1438Y1502D02*
X1608Y1500D01*
D02*
X1308Y1073D02*
X1308Y735D01*
D02*
X3306Y1802D02*
X3308Y1972D01*
D02*
X2506Y904D02*
X2508Y433D01*
D02*
X2828Y1226D02*
X3306Y1802D01*
D02*
X2808Y1171D02*
X2808Y1100D01*
D02*
X1110Y402D02*
X1208Y300D01*
D02*
X510Y802D02*
X608Y704D01*
D02*
X1008Y602D02*
X1008Y300D01*
D02*
X1008Y300D02*
X1110Y202D01*
D02*
X2408Y1500D02*
X2789Y1978D01*
D02*
X2208Y1500D02*
X2408Y1500D01*
D02*
X2106Y1402D02*
X2208Y1500D01*
D02*
X2106Y1002D02*
X2106Y1402D01*
D02*
X1910Y802D02*
X2106Y1002D01*
D02*
X1608Y802D02*
X1910Y802D01*
D02*
X1506Y602D02*
X1608Y802D01*
D02*
X1906Y1602D02*
X2408Y1602D01*
D02*
X1808Y1002D02*
X1808Y1500D01*
D02*
X1510Y900D02*
X1710Y900D01*
D02*
X1027Y1479D02*
X1068Y1427D01*
D02*
X2008Y202D02*
X2087Y123D01*
D02*
X1110Y202D02*
X2008Y202D01*
D02*
X910Y700D02*
X1008Y602D01*
D02*
X608Y704D02*
X910Y700D01*
D02*
X508Y872D02*
X510Y802D01*
D02*
X2408Y1602D02*
X2690Y1978D01*
D02*
X1808Y1500D02*
X1906Y1602D01*
D02*
X1710Y900D02*
X1808Y1002D01*
D02*
X1408Y704D02*
X1510Y900D01*
D02*
X1408Y402D02*
X1408Y704D01*
D02*
X1339Y402D02*
X1408Y402D01*
D02*
X1510Y300D02*
X1506Y602D01*
D02*
X1208Y300D02*
X1510Y300D01*
D02*
X1106Y602D02*
X1110Y402D01*
D02*
X1186Y682D02*
X1106Y602D01*
D02*
X1106Y1900D02*
X1063Y1976D01*
D02*
X1108Y1532D02*
X1106Y1900D01*
D02*
X1176Y1451D02*
X1152Y1643D01*
D02*
X1068Y1427D02*
X1176Y1451D01*
D02*
X1152Y1643D02*
X1429Y1979D01*
D02*
X1035Y1746D02*
X922Y1529D01*
D02*
X2287Y1981D02*
X2208Y1900D01*
D02*
X1236Y1619D02*
X1236Y1379D01*
D02*
X1510Y1900D02*
X1236Y1619D01*
D02*
X2208Y1900D02*
X1510Y1900D01*
D02*
X1236Y1379D02*
X702Y1170D01*
D02*
X2408Y1802D02*
X1510Y1802D01*
D02*
X1510Y1802D02*
X1310Y1602D01*
D02*
X2608Y2002D02*
X2408Y1802D01*
D02*
X2580Y2075D02*
X2608Y2002D01*
D02*
X2268Y2075D02*
X2580Y2075D01*
D02*
X2227Y2025D02*
X2268Y2075D01*
D02*
X1306Y1304D02*
X1208Y1202D01*
D02*
X1208Y1202D02*
X1208Y1002D01*
D02*
X1208Y1002D02*
X1110Y900D01*
D02*
X1310Y1602D02*
X1306Y1304D01*
D02*
X1110Y900D02*
X638Y902D01*
D02*
X586Y224D02*
X208Y602D01*
D02*
X208Y602D02*
X208Y1300D01*
D02*
X808Y1704D02*
X844Y1972D01*
D02*
X710Y1602D02*
X808Y1704D01*
D02*
X506Y1602D02*
X710Y1602D01*
D02*
X208Y1300D02*
X506Y1602D01*
D02*
X3008Y704D02*
X3008Y1002D01*
D02*
X3408Y1202D02*
X3408Y1602D01*
D02*
X3310Y1100D02*
X3408Y1202D01*
D02*
X3110Y1100D02*
X3310Y1100D01*
D02*
X3008Y1002D02*
X3110Y1100D01*
D02*
X3408Y1602D02*
X3408Y1972D01*
D02*
X2808Y500D02*
X3008Y704D01*
D02*
X2706Y500D02*
X2808Y500D01*
D02*
X2630Y424D02*
X2706Y500D01*
D02*
X486Y224D02*
X110Y602D01*
D02*
X110Y1402D02*
X310Y1602D01*
D02*
X110Y602D02*
X110Y1402D01*
D02*
X706Y1704D02*
X744Y1972D01*
D02*
X510Y1700D02*
X706Y1704D01*
D02*
X408Y1602D02*
X510Y1700D01*
D02*
X310Y1602D02*
X408Y1602D01*
D02*
X2408Y602D02*
X2310Y700D01*
D02*
X2310Y700D02*
X1710Y704D01*
D02*
X1710Y704D02*
X1621Y616D01*
D02*
X2408Y433D02*
X2408Y602D01*
G04 End of Copper1*
M02*