<?xml version="1.0" encoding="iso-8859-1"?>
<!-- Generator: Adobe Illustrator 19.0.0, SVG Export Plug-In . SVG Version: 6.00 Build 0)  -->
<svg version="1.1" id="Layer_1" xmlns="http://www.w3.org/2000/svg" xmlns:xlink="http://www.w3.org/1999/xlink" x="0px" y="0px"
	 viewBox="0 0 512 512" style="enable-background:new 0 0 512 512;" xml:space="preserve">
<rect x="140.19" y="48" style="fill:#434A54;" width="179.81" height="64"/>
<polygon style="fill:#656D78;" points="321.844,217.922 276.594,263.172 116.062,102.625 161.312,57.375 "/>
<g>
	<path style="fill:#CCD1D9;" d="M161.312,57.375c12.5,12.5,12.5,32.75,0,45.25s-32.75,12.5-45.25,0s-12.5-32.75,0-45.25
		S148.812,44.875,161.312,57.375z"/>
	<path style="fill:#CCD1D9;" d="M362.688,282.656c0,58.922-47.781,106.688-106.688,106.688s-106.656-47.766-106.656-106.688
		C149.344,223.75,197.094,176,256,176S362.688,223.75,362.688,282.656z"/>
</g>
<g>
	<path style="fill:#E6E9ED;" d="M512,389.344c0,11.781-9.531,21.312-21.312,21.312H21.344C9.562,410.656,0,401.125,0,389.344V304
		c0-11.781,9.562-21.344,21.344-21.344h469.344c11.781,0,21.312,9.562,21.312,21.344V389.344z"/>
	<rect x="107.28" y="368" style="fill:#E6E9ED;" width="287.91" height="87.66"/>
</g>
<g>
	<path style="fill:#CCD1D9;" d="M85.344,464C55.938,464,32,440.078,32,410.656c0-29.406,23.938-53.312,53.344-53.312
		s53.344,23.906,53.344,53.312C138.688,440.078,114.75,464,85.344,464z"/>
	<path style="fill:#CCD1D9;" d="M426.688,464c-29.406,0-53.344-23.922-53.344-53.344c0-29.406,23.938-53.312,53.344-53.312
		S480,381.25,480,410.656C480,440.078,456.094,464,426.688,464z"/>
	<path style="fill:#CCD1D9;" d="M256,464c-29.406,0-53.312-23.922-53.312-53.344c0-29.406,23.906-53.312,53.312-53.312
		s53.344,23.906,53.344,53.312C309.344,440.078,285.406,464,256,464z"/>
</g>
<g>
	<path style="fill:#434A54;" d="M85.344,400c-5.875,0-10.656,4.781-10.656,10.656c0,5.906,4.781,10.688,10.656,10.688
		c5.906,0,10.656-4.781,10.656-10.688C96,404.781,91.25,400,85.344,400z"/>
	<path style="fill:#434A54;" d="M426.688,400c-5.906,0-10.688,4.781-10.688,10.656c0,5.906,4.781,10.688,10.688,10.688
		c5.875,0,10.656-4.781,10.656-10.688C437.344,404.781,432.562,400,426.688,400z"/>
	<path style="fill:#434A54;" d="M256,400c-5.875,0-10.656,4.781-10.656,10.656c0,5.906,4.781,10.688,10.656,10.688
		c5.906,0,10.688-4.781,10.688-10.688C266.688,404.781,261.906,400,256,400z"/>
	<path style="fill:#434A54;" d="M426.688,346.656H85.344c-35.344,0-64,28.656-64,64c0,35.359,28.656,64,64,64h341.344
		c35.344,0,64-28.641,64-64C490.688,375.312,462.031,346.656,426.688,346.656z M85.344,453.344
		c-23.531,0-42.656-19.156-42.656-42.688C42.688,387.14,61.813,368,85.344,368S128,387.141,128,410.656
		C128,434.188,108.875,453.344,85.344,453.344z M208.625,453.344H132.75c10.203-11.344,16.594-26.219,16.594-42.688
		c0-16.453-6.375-31.312-16.594-42.656h75.875C198.406,379.344,192,394.203,192,410.656C192,427.125,198.406,442,208.625,453.344z
		 M256,453.344c-23.5,0-42.656-19.156-42.656-42.688C213.344,387.141,232.5,368,256,368c23.531,0,42.688,19.141,42.688,42.656
		C298.688,434.188,279.531,453.344,256,453.344z M379.281,453.344h-75.875C313.609,442,320,427.125,320,410.656
		c0-16.453-6.375-31.312-16.594-42.656h75.875c-10.219,11.344-16.594,26.203-16.594,42.656
		C362.688,427.125,369.078,442,379.281,453.344z M426.688,453.344c-23.531,0-42.688-19.156-42.688-42.688
		C384,387.141,403.156,368,426.688,368s42.656,19.141,42.656,42.656C469.344,434.188,450.219,453.344,426.688,453.344z"/>
	<path style="fill:#434A54;" d="M394.688,90.656c-5.906,0-10.688,4.781-10.688,10.688h-56.656v-0.016H320V58.656h7.344H384l0,0
		c0,5.906,4.781,10.688,10.688,10.688c5.875,0,10.656-4.781,10.656-10.688c0-11.781-9.562-21.312-21.344-21.312h-64
		c-11.781,0-21.312,9.531-21.312,21.312v42.688c0,11.781,9.531,21.312,21.312,21.312h64c11.781,0,21.344-9.531,21.344-21.312
		C405.344,95.438,400.562,90.656,394.688,90.656z"/>
</g>
<g>
</g>
<g>
</g>
<g>
</g>
<g>
</g>
<g>
</g>
<g>
</g>
<g>
</g>
<g>
</g>
<g>
</g>
<g>
</g>
<g>
</g>
<g>
</g>
<g>
</g>
<g>
</g>
<g>
</g>
</svg>
