G04 MADE WITH FRITZING*
G04 WWW.FRITZING.ORG*
G04 DOUBLE SIDED*
G04 HOLES PLATED*
G04 CONTOUR ON CENTER OF CONTOUR VECTOR*
%ASAXBY*%
%FSLAX23Y23*%
%MOIN*%
%OFA0B0*%
%SFA1.0B1.0*%
%ADD10C,0.049370*%
%ADD11C,0.088000*%
%ADD12C,0.090000*%
%ADD13C,0.085000*%
%ADD14C,0.082917*%
%ADD15C,0.080000*%
%ADD16C,0.084472*%
%ADD17C,0.148425*%
%ADD18R,0.090000X0.090000*%
%ADD19R,0.084108X0.084472*%
%LNMASK1*%
G90*
G70*
G54D10*
X1044Y1763D03*
X684Y1163D03*
X1608Y602D03*
G54D11*
X608Y902D03*
X508Y902D03*
X408Y902D03*
X308Y902D03*
X508Y1502D03*
X508Y1402D03*
X508Y1302D03*
X808Y1502D03*
X908Y1502D03*
X1008Y1502D03*
X1108Y1502D03*
G54D12*
X308Y1902D03*
X308Y1764D03*
G54D11*
X1408Y1502D03*
X1408Y1402D03*
X3208Y602D03*
X3208Y702D03*
X3208Y802D03*
G54D13*
X1708Y1102D03*
X1308Y1102D03*
G54D14*
X3008Y102D03*
X1408Y102D03*
X3108Y102D03*
X3208Y102D03*
X3308Y102D03*
X3408Y102D03*
X3708Y1502D03*
X3508Y102D03*
X3608Y102D03*
X1448Y2002D03*
X2008Y102D03*
X2108Y102D03*
X2208Y102D03*
X2308Y102D03*
X3708Y702D03*
X2408Y102D03*
X2508Y102D03*
X2608Y102D03*
X2708Y102D03*
X2208Y2002D03*
X3708Y1902D03*
X3708Y1102D03*
X3708Y302D03*
X1048Y2002D03*
X1808Y102D03*
X1808Y2002D03*
X3708Y1702D03*
X3708Y1302D03*
X3708Y902D03*
X3408Y2002D03*
X3708Y502D03*
X3308Y2002D03*
X3208Y2002D03*
X3108Y2002D03*
X3008Y2002D03*
X2908Y2002D03*
X2808Y2002D03*
X2708Y2002D03*
X848Y2002D03*
X1248Y2002D03*
X1648Y2002D03*
X1208Y102D03*
X1608Y102D03*
X2408Y2002D03*
X2008Y2002D03*
X3708Y2002D03*
X3708Y1802D03*
X3708Y1602D03*
X3708Y1402D03*
X3708Y1202D03*
X3708Y1002D03*
X3708Y802D03*
X3708Y602D03*
X3708Y402D03*
X748Y2002D03*
X948Y2002D03*
X1148Y2002D03*
X1348Y2002D03*
X1548Y2002D03*
X1108Y102D03*
X1308Y102D03*
X1508Y102D03*
X1708Y102D03*
X2508Y2002D03*
X2308Y2002D03*
X2108Y2002D03*
X1908Y2002D03*
X3808Y2002D03*
X3808Y1902D03*
X3808Y1802D03*
X3808Y1702D03*
X3808Y1602D03*
X3808Y1502D03*
X3808Y1402D03*
X3808Y1302D03*
X3808Y1202D03*
X3808Y1102D03*
X3808Y1002D03*
X3808Y902D03*
X3808Y802D03*
X3808Y702D03*
X3808Y602D03*
X3808Y502D03*
X3808Y402D03*
X3808Y302D03*
X2908Y102D03*
G54D15*
X2308Y1202D03*
X2408Y1202D03*
X2508Y1202D03*
X2608Y1202D03*
X2708Y1202D03*
X2808Y1202D03*
X2908Y1202D03*
X308Y202D03*
X408Y202D03*
X508Y202D03*
X608Y202D03*
X708Y202D03*
G54D16*
X1308Y704D03*
X1208Y704D03*
X1308Y603D03*
X1208Y603D03*
X1308Y503D03*
X1208Y503D03*
X1308Y402D03*
X1208Y402D03*
X1308Y704D03*
X1208Y704D03*
X1308Y603D03*
X1208Y603D03*
X1308Y503D03*
X1208Y503D03*
X1308Y402D03*
X1208Y402D03*
G54D17*
X2858Y902D03*
G54D15*
X2208Y402D03*
X2308Y402D03*
X2408Y402D03*
X2508Y402D03*
X2608Y402D03*
X2708Y402D03*
X2808Y402D03*
X2908Y402D03*
G54D17*
X2258Y902D03*
G54D18*
X308Y1902D03*
G54D19*
X1308Y704D03*
X1308Y704D03*
X1308Y402D03*
G04 End of Mask1*
M02*