; NON-PLATED HOLES START AT T1
; THROUGH (PLATED) HOLES START AT T100
M48
INCH
T100C0.015748
T101C0.039370
T102C0.098425
T103C0.038194
T104C0.040255
T105C0.040000
T106C0.038000
T107C0.035000
%
T100
X010440Y017630
X016079Y006020
X006839Y011630
T101
X023079Y004020
X024079Y004020
X007079Y002020
X029079Y004020
X022079Y004020
X025079Y004020
X029079Y012020
X005079Y002020
X004079Y002020
X026079Y012020
X027079Y004020
X006079Y002020
X027079Y012020
X028079Y004020
X023079Y012020
X003079Y002020
X026079Y004020
X025079Y012020
X028079Y012020
X024079Y012020
T102
X022579Y009020
X028579Y009020
T103
X037079Y020020
X034079Y020020
X032079Y001020
X038079Y008020
X031079Y001020
X038079Y015020
X037079Y010020
X038079Y005020
X018079Y020020
X032079Y020020
X037079Y015020
X016479Y020020
X014079Y001020
X024079Y001020
X038079Y011020
X037079Y008020
X013479Y020020
X028079Y020020
X015079Y001020
X037079Y018020
X021079Y001020
X016079Y001020
X038079Y019020
X038079Y007020
X013079Y001020
X037079Y004020
X033079Y020020
X038079Y012020
X021079Y020020
X037079Y007020
X037079Y009020
X023079Y020020
X038079Y014020
X017079Y001020
X038079Y013020
X037079Y003020
X037079Y011020
X029079Y020020
X038079Y010020
X027079Y020020
X035079Y001020
X037079Y013020
X033079Y001020
X037079Y014020
X038079Y009020
X020079Y001020
X012479Y020020
X015479Y020020
X027079Y001020
X024079Y020020
X010479Y020020
X022079Y001020
X034079Y001020
X038079Y020020
X014479Y020020
X037079Y006020
X036079Y001020
X019079Y020020
X026079Y001020
X022079Y020020
X025079Y001020
X038079Y003020
X008479Y020020
X030079Y001020
X011479Y020020
X023079Y001020
X038079Y017020
X020079Y020020
X018079Y001020
X037079Y016020
X038079Y018020
X011079Y001020
X012079Y001020
X038079Y006020
X037079Y017020
X037079Y019020
X037079Y012020
X031079Y020020
X030079Y020020
X029079Y001020
X038079Y004020
X025079Y020020
X037079Y005020
X009479Y020020
X007479Y020020
X038079Y016020
T104
X013079Y006033
X013079Y007040
X013079Y004020
X012079Y005027
X012079Y006033
X012079Y004020
X013079Y005027
X012079Y007040
T105
X003079Y019020
X003079Y017642
T106
X006079Y009020
X003079Y009020
X005079Y009020
X010079Y015020
X014079Y014020
X032079Y006020
X005079Y013020
X011079Y015020
X005079Y014020
X009079Y015020
X014079Y015020
X008079Y015020
X032079Y007020
X032079Y008020
X005079Y015020
X004079Y009020
T107
X017079Y011020
X013079Y011020
T00
M30
